<svg width="42" height="42" viewBox="0 0 42 42" fill="none" xmlns="http://www.w3.org/2000/svg">
<path d="M21 38.5C30.665 38.5 38.5 30.665 38.5 21C38.5 11.335 30.665 3.5 21 3.5C11.335 3.5 3.5 11.335 3.5 21C3.5 30.665 11.335 38.5 21 38.5Z" fill="#3B5998"/>
<path fill-rule="evenodd" clip-rule="evenodd" d="M25.6506 14.8381C25.1052 14.729 24.3686 14.6475 23.9053 14.6475C22.6509 14.6475 22.5694 15.1929 22.5694 16.0656V17.6191H25.7052L25.4319 20.837H22.5694V30.625H18.643V20.837H16.625V17.6191H18.643V15.6286C18.643 12.9021 19.9245 11.375 23.1417 11.375C24.2596 11.375 25.0777 11.5386 26.1409 11.7568L25.6506 14.8381Z" fill="white"/>
</svg>
