<svg width="41" height="41" viewBox="0 0 41 41" fill="none" xmlns="http://www.w3.org/2000/svg">
<path d="M20.4998 37.5833C29.9347 37.5833 37.5832 29.9349 37.5832 20.5C37.5832 11.0651 29.9347 3.41666 20.4998 3.41666C11.065 3.41666 3.4165 11.0651 3.4165 20.5C3.4165 29.9349 11.065 37.5833 20.4998 37.5833Z" fill="#C13584"/>
<path d="M20.5 12.0969C23.2368 12.0969 23.5611 12.1073 24.6419 12.1566C25.6412 12.2022 26.184 12.3692 26.5452 12.5095C27.0236 12.6955 27.365 12.9176 27.7237 13.2762C28.0824 13.635 28.3045 13.9764 28.4905 14.4548C28.6308 14.816 28.7978 15.3588 28.8434 16.3581C28.8927 17.4389 28.9031 17.7631 28.9031 20.4999C28.9031 23.2368 28.8927 23.561 28.8434 24.6419C28.7978 25.6412 28.6308 26.1839 28.4905 26.5451C28.3045 27.0235 28.0824 27.365 27.7238 27.7237C27.365 28.0824 27.0236 28.3044 26.5452 28.4904C26.184 28.6308 25.6412 28.7977 24.6419 28.8433C23.5612 28.8926 23.2371 28.9031 20.5 28.9031C17.7629 28.9031 17.4388 28.8926 16.3581 28.8433C15.3588 28.7977 14.816 28.6308 14.4548 28.4904C13.9764 28.3044 13.635 28.0824 13.2763 27.7237C12.9176 27.365 12.6955 27.0235 12.5095 26.5451C12.3692 26.1839 12.2022 25.6412 12.1566 24.6419C12.1073 23.561 12.0969 23.2368 12.0969 20.4999C12.0969 17.7631 12.1073 17.4389 12.1566 16.3581C12.2022 15.3588 12.3692 14.816 12.5095 14.4548C12.6955 13.9764 12.9176 13.635 13.2763 13.2763C13.635 12.9176 13.9764 12.6955 14.4548 12.5095C14.816 12.3692 15.3588 12.2022 16.3581 12.1566C17.4389 12.1073 17.7632 12.0969 20.5 12.0969ZM20.5 10.25C17.7163 10.25 17.3672 10.2618 16.2739 10.3117C15.183 10.3615 14.4378 10.5347 13.7858 10.7881C13.1118 11.05 12.5402 11.4005 11.9704 11.9704C11.4005 12.5402 11.05 13.1118 10.7881 13.7858C10.5347 14.4378 10.3615 15.1829 10.3117 16.2739C10.2618 17.3672 10.25 17.7163 10.25 20.4999C10.25 23.2837 10.2618 23.6327 10.3117 24.726C10.3615 25.817 10.5347 26.5621 10.7881 27.2141C11.05 27.8881 11.4005 28.4597 11.9704 29.0296C12.5402 29.5994 13.1118 29.9499 13.7858 30.2118C14.4378 30.4652 15.183 30.6384 16.2739 30.6882C17.3672 30.7381 17.7163 30.7499 20.5 30.7499C23.2837 30.7499 23.6328 30.7381 24.7261 30.6882C25.817 30.6384 26.5622 30.4652 27.2142 30.2118C27.8882 29.9499 28.4598 29.5994 29.0296 29.0296C29.5994 28.4597 29.95 27.8881 30.2119 27.2141C30.4653 26.5621 30.6385 25.817 30.6883 24.726C30.7382 23.6327 30.75 23.2837 30.75 20.4999C30.75 17.7163 30.7382 17.3672 30.6883 16.2739C30.6385 15.1829 30.4653 14.4378 30.2119 13.7858C29.95 13.1118 29.5994 12.5402 29.0296 11.9704C28.4598 11.4005 27.8882 11.05 27.2142 10.7881C26.5622 10.5347 25.817 10.3615 24.7261 10.3117C23.6328 10.2618 23.2837 10.25 20.5 10.25Z" fill="white"/>
<path d="M20.5052 15.2411C17.5982 15.2411 15.2417 17.5976 15.2417 20.5046C15.2417 23.4116 17.5982 25.7681 20.5052 25.7681C23.4121 25.7681 25.7687 23.4116 25.7687 20.5046C25.7687 17.5976 23.4121 15.2411 20.5052 15.2411ZM20.5052 23.9213C18.6182 23.9213 17.0885 22.3915 17.0885 20.5046C17.0885 18.6177 18.6182 17.0879 20.5052 17.0879C22.3922 17.0879 23.9218 18.6177 23.9218 20.5046C23.9218 22.3915 22.3922 23.9213 20.5052 23.9213Z" fill="white"/>
<path d="M27.2056 15.0302C27.2056 15.7094 26.6549 16.2602 25.9756 16.2602C25.2963 16.2602 24.7456 15.7094 24.7456 15.0302C24.7456 14.3508 25.2963 13.8001 25.9756 13.8001C26.6549 13.8001 27.2056 14.3508 27.2056 15.0302Z" fill="white"/>
</svg>
