<svg width="36" height="36" viewBox="0 0 36 36" fill="none" xmlns="http://www.w3.org/2000/svg">
<path d="M29.595 24.9945C30.3373 24.0756 30.7447 22.9313 30.75 21.75C30.75 20.3576 30.1969 19.0223 29.2123 18.0377C28.2277 17.0531 26.8924 16.5 25.5 16.5C24.1076 16.5 22.7723 17.0531 21.7877 18.0377C20.8031 19.0223 20.25 20.3576 20.25 21.75C20.2553 22.9313 20.6627 24.0756 21.405 24.9945C20.0291 25.7008 18.8569 26.7475 18 28.035C17.1431 26.7475 15.9709 25.7008 14.595 24.9945C15.3373 24.0756 15.7447 22.9313 15.75 21.75C15.75 20.3576 15.1969 19.0223 14.2123 18.0377C13.2277 17.0531 11.8924 16.5 10.5 16.5C9.10761 16.5 7.77226 17.0531 6.78769 18.0377C5.80312 19.0223 5.25 20.3576 5.25 21.75C5.25533 22.9313 5.66268 24.0756 6.405 24.9945C4.92985 25.7482 3.69135 26.8945 2.8259 28.307C1.96046 29.7195 1.50164 31.3434 1.5 33C1.5 33.3978 1.65804 33.7794 1.93934 34.0607C2.22064 34.342 2.60218 34.5 3 34.5H33C33.3978 34.5 33.7794 34.342 34.0607 34.0607C34.342 33.7794 34.5 33.3978 34.5 33C34.4984 31.3434 34.0395 29.7195 33.1741 28.307C32.3087 26.8945 31.0701 25.7482 29.595 24.9945ZM10.5 19.5C10.945 19.5 11.38 19.632 11.75 19.8792C12.12 20.1264 12.4084 20.4778 12.5787 20.889C12.749 21.3001 12.7936 21.7525 12.7068 22.189C12.62 22.6254 12.4057 23.0263 12.091 23.341C11.7763 23.6557 11.3754 23.87 10.939 23.9568C10.5025 24.0436 10.0501 23.999 9.63896 23.8287C9.22783 23.6584 8.87643 23.37 8.62919 23C8.38196 22.63 8.25 22.195 8.25 21.75C8.25 21.1533 8.48705 20.581 8.90901 20.159C9.33097 19.7371 9.90326 19.5 10.5 19.5ZM4.689 31.5C5.02049 30.2107 5.77134 29.0683 6.82335 28.2525C7.87536 27.4368 9.16878 26.9941 10.5 26.9941C11.8312 26.9941 13.1246 27.4368 14.1767 28.2525C15.2287 29.0683 15.9795 30.2107 16.311 31.5H4.689ZM25.5 19.5C25.945 19.5 26.38 19.632 26.75 19.8792C27.12 20.1264 27.4084 20.4778 27.5787 20.889C27.749 21.3001 27.7936 21.7525 27.7068 22.189C27.62 22.6254 27.4057 23.0263 27.091 23.341C26.7763 23.6557 26.3754 23.87 25.939 23.9568C25.5025 24.0436 25.0501 23.999 24.639 23.8287C24.2278 23.6584 23.8764 23.37 23.6292 23C23.382 22.63 23.25 22.195 23.25 21.75C23.25 21.1533 23.4871 20.581 23.909 20.159C24.331 19.7371 24.9033 19.5 25.5 19.5ZM19.6905 31.5C20.023 30.212 20.7741 29.0711 21.8257 28.2565C22.8773 27.4419 24.1698 26.9999 25.5 26.9999C26.8302 26.9999 28.1227 27.4419 29.1743 28.2565C30.2259 29.0711 30.977 30.212 31.3095 31.5H19.6905ZM10.8 12.6C10.5613 12.9183 10.4588 13.3183 10.5151 13.7121C10.5713 14.106 10.7817 14.4613 11.1 14.7C11.4183 14.9387 11.8183 15.0412 12.2121 14.9849C12.606 14.9287 12.9613 14.7183 13.2 14.4C13.7589 13.6548 14.4836 13.05 15.3167 12.6334C16.1499 12.2169 17.0685 12 18 12C18.9315 12 19.8501 12.2169 20.6833 12.6334C21.5164 13.05 22.2411 13.6548 22.8 14.4C22.9182 14.5576 23.0663 14.6904 23.2358 14.7907C23.4053 14.8911 23.5929 14.9571 23.7879 14.9849C23.9829 15.0128 24.1814 15.002 24.3723 14.9531C24.5631 14.9042 24.7424 14.8182 24.9 14.7C25.0576 14.5818 25.1903 14.4337 25.2907 14.2642C25.3911 14.0947 25.4571 13.9071 25.4849 13.7121C25.5128 13.5171 25.502 13.3185 25.4531 13.1277C25.4042 12.9369 25.3182 12.7576 25.2 12.6C24.3796 11.5049 23.3202 10.6112 22.1025 9.987C22.8408 9.06925 23.2455 7.92787 23.25 6.75C23.25 5.35761 22.6969 4.02226 21.7123 3.03769C20.7277 2.05312 19.3924 1.5 18 1.5C16.6076 1.5 15.2723 2.05312 14.2877 3.03769C13.3031 4.02226 12.75 5.35761 12.75 6.75C12.7549 7.92736 13.1595 9.06815 13.8975 9.9855C12.6795 10.6099 11.62 11.5041 10.8 12.6ZM18 4.5C18.445 4.5 18.88 4.63196 19.25 4.87919C19.62 5.12643 19.9084 5.47783 20.0787 5.88896C20.249 6.3001 20.2936 6.7525 20.2068 7.18895C20.12 7.62541 19.9057 8.02632 19.591 8.34099C19.2763 8.65566 18.8754 8.86995 18.439 8.95677C18.0025 9.04358 17.5501 8.99903 17.139 8.82873C16.7278 8.65843 16.3764 8.37004 16.1292 8.00003C15.882 7.63002 15.75 7.19501 15.75 6.75C15.75 6.15326 15.9871 5.58097 16.409 5.15901C16.831 4.73705 17.4033 4.5 18 4.5Z" fill="#0A1020" fill-opacity="0.5"/>
</svg>
