<svg width="41" height="41" viewBox="0 0 41 41" fill="none" xmlns="http://www.w3.org/2000/svg">
<path d="M20.4998 37.5833C29.9347 37.5833 37.5832 29.9349 37.5832 20.5C37.5832 11.0651 29.9347 3.41666 20.4998 3.41666C11.065 3.41666 3.4165 11.0651 3.4165 20.5C3.4165 29.9349 11.065 37.5833 20.4998 37.5833Z" fill="#1DA1F2"/>
<path fill-rule="evenodd" clip-rule="evenodd" d="M30.75 13.9303C29.9964 14.2651 29.1853 14.4906 28.3346 14.5924C29.203 14.0717 29.87 13.2477 30.1835 12.2658C29.3718 12.7482 28.4706 13.0974 27.5133 13.2867C26.7459 12.4695 25.652 11.9583 24.4433 11.9583C22.1208 11.9583 20.2376 13.8415 20.2376 16.164C20.2376 16.4933 20.2752 16.8145 20.3469 17.1226C16.8513 16.9477 13.7525 15.2729 11.6781 12.7284C11.3159 13.3495 11.1089 14.0717 11.1089 14.8425C11.1089 16.3014 11.8503 17.5887 12.9797 18.343C12.2896 18.3211 11.6419 18.1318 11.074 17.8168V17.8694C11.074 19.9077 12.5246 21.607 14.4475 21.9945C14.0949 22.0901 13.7231 22.1421 13.3399 22.1421C13.0686 22.1421 12.8048 22.1154 12.5479 22.0662C13.0829 23.7369 14.6367 24.9531 16.4768 24.9873C15.0378 26.1147 13.2244 26.7877 11.2537 26.7877C10.9134 26.7877 10.5787 26.7679 10.25 26.7283C12.1113 27.9214 14.3217 28.6183 16.6968 28.6183C24.4323 28.6183 28.6626 22.2097 28.6626 16.6525C28.6626 16.4701 28.6592 16.2884 28.6503 16.1087C29.4729 15.5142 30.1863 14.7735 30.75 13.9303Z" fill="white"/>
</svg>
